<svg width="18" height="14" viewBox="0 0 18 14" fill="none" xmlns="http://www.w3.org/2000/svg">
<path d="M14.8333 0.333496H3.16663C2.50358 0.333496 1.8677 0.596888 1.39886 1.06573C0.930018 1.53457 0.666626 2.17045 0.666626 2.8335V11.1668C0.666626 11.8299 0.930018 12.4658 1.39886 12.9346C1.8677 13.4034 2.50358 13.6668 3.16663 13.6668H14.8333C15.4963 13.6668 16.1322 13.4034 16.6011 12.9346C17.0699 12.4658 17.3333 11.8299 17.3333 11.1668V2.8335C17.3333 2.17045 17.0699 1.53457 16.6011 1.06573C16.1322 0.596888 15.4963 0.333496 14.8333 0.333496ZM14.8333 2.00016L9.41663 5.72516C9.28994 5.7983 9.14624 5.83681 8.99996 5.83681C8.85368 5.83681 8.70998 5.7983 8.58329 5.72516L3.16663 2.00016H14.8333Z" fill="#762A91"/>
</svg>
