<svg width="18" height="18" viewBox="0 0 18 18" fill="none" xmlns="http://www.w3.org/2000/svg">
<path d="M8.99996 0.666504C4.40496 0.666504 0.666626 4.40484 0.666626 8.99984V12.4523C0.666626 13.3057 1.41413 13.9998 2.33329 13.9998H3.16663C3.38764 13.9998 3.5996 13.912 3.75588 13.7558C3.91216 13.5995 3.99996 13.3875 3.99996 13.1665V8.88067C3.99996 8.65966 3.91216 8.44769 3.75588 8.29141C3.5996 8.13513 3.38764 8.04734 3.16663 8.04734H2.40996C2.87329 4.82234 5.64829 2.33317 8.99996 2.33317C12.3516 2.33317 15.1266 4.82234 15.59 8.04734H14.8333C14.6123 8.04734 14.4003 8.13513 14.244 8.29141C14.0878 8.44769 14 8.65966 14 8.88067V13.9998C14 14.919 13.2525 15.6665 12.3333 15.6665H10.6666V14.8332H7.33329V17.3332H12.3333C14.1716 17.3332 15.6666 15.8382 15.6666 13.9998C16.5858 13.9998 17.3333 13.3057 17.3333 12.4523V8.99984C17.3333 4.40484 13.595 0.666504 8.99996 0.666504Z" fill="#762A91"/>
</svg>
